<svg xmlns="http://www.w3.org/2000/svg" viewBox="0 0 694.99892 695.12715">
  <title>icon-search</title>
  <g id="Layer_2" data-name="Layer 2">
    <g id="Layer_1-2" data-name="Layer 1">
      <path d="M684.04668,631.2921,486.14078,433.3868c80.0545-105.8975,71.9054-257.6914-24.5703-354.167a270.44383,270.44383,0,0,0-382.4826,0c-105.4505,105.4504-105.4505,277.0273,0,382.4778a270.43918,270.43918,0,0,0,354.2037,24.6044l197.8729,197.8729a37.39339,37.39339,0,0,0,52.8822,0h0A37.39412,37.39412,0,0,0,684.04668,631.2921ZM114.45948,426.3259c-85.9423-85.9472-85.9423-225.7873,0-311.7345a220.43387,220.43387,0,0,1,311.7394,0c85.9423,85.9472,85.9423,225.7873,0,311.7345a220.43387,220.43387,0,0,1-311.7394,0Z"/>
    </g>
  </g>
</svg>
