<svg width="331" height="331" viewBox="0 0 331 331" fill="none" xmlns="http://www.w3.org/2000/svg">
<path d="M165.926 0.494507C74.8012 0.494507 0.926208 74.3695 0.926208 165.495C0.926208 256.62 74.8012 330.495 165.926 330.495C257.051 330.495 330.926 256.62 330.926 165.495C330.926 74.3695 257.051 0.494507 165.926 0.494507ZM165.926 30.4945C240.484 30.4945 300.926 90.937 300.926 165.495C300.926 240.052 240.484 300.495 165.926 300.495C91.3687 300.495 30.9262 240.052 30.9262 165.495C30.9262 90.937 91.3687 30.4945 165.926 30.4945ZM165.926 45.4945C157.646 45.4945 150.926 52.207 150.926 60.4945V150.495H75.9262C67.6387 150.495 60.9262 157.215 60.9262 165.495C60.9262 173.775 67.6387 180.495 75.9262 180.495H165.926C174.206 180.495 180.926 173.782 180.926 165.495V60.4945C180.926 52.207 174.206 45.4945 165.926 45.4945Z" fill="black"/>
</svg>
